<svg id="Layer_1" data-name="Layer 1" xmlns="http://www.w3.org/2000/svg" viewBox="0 0 320.2 96.49"><defs><style>.cls-1{fill:#f90;}.cls-1,.cls-2{fill-rule:evenodd;}.cls-2{fill:#fff;}</style></defs><title>Amazon-logo-RGB-REV</title><path class="cls-1" d="M239.55,111.55c-18.6,13.73-45.58,21-68.8,21a124.51,124.51,0,0,1-84-32.06C85,98.95,86.51,96.8,88.61,98a169.17,169.17,0,0,0,84.09,22.31,167.3,167.3,0,0,0,64.14-13.13C240,105.87,242.63,109.27,239.55,111.55Z" transform="translate(-40.9 -36.09)"/><path class="cls-1" d="M247.29,102.71c-2.38-3-15.73-1.44-21.73-.72-1.82.22-2.1-1.37-.46-2.52,10.65-7.48,28.1-5.32,30.13-2.82s-.54,20-10.52,28.37c-1.54,1.28-3,.6-2.31-1.1C244.64,118.31,249.67,105.76,247.29,102.71Z" transform="translate(-40.9 -36.09)"/><path class="cls-2" d="M226,46.63V39.36a1.8,1.8,0,0,1,1.84-1.84H260.4a1.81,1.81,0,0,1,1.88,1.83v6.23c0,1-.89,2.41-2.45,4.58L243,74.25c6.26-.15,12.89.79,18.58,4a3.32,3.32,0,0,1,1.73,2.84v7.76c0,1.07-1.17,2.3-2.4,1.66a37.52,37.52,0,0,0-34.42.07c-1.13.6-2.32-.62-2.32-1.69V81.5a8.77,8.77,0,0,1,1.21-5l19.55-28h-17A1.81,1.81,0,0,1,226,46.63Z" transform="translate(-40.9 -36.09)"/><path class="cls-2" d="M107.16,92H97.25a1.87,1.87,0,0,1-1.77-1.68V39.48a1.87,1.87,0,0,1,1.91-1.83h9.23a1.86,1.86,0,0,1,1.8,1.71V46h.19c2.4-6.42,6.94-9.42,13-9.42s10.08,3,12.86,9.42a14.64,14.64,0,0,1,25.16-3.85c3.14,4.28,2.5,10.49,2.5,15.95v32.1A1.87,1.87,0,0,1,160.26,92h-9.9a1.86,1.86,0,0,1-1.78-1.83v-27c0-2.14.19-7.49-.28-9.52-.74-3.43-3-4.39-5.83-4.39a6.57,6.57,0,0,0-5.92,4.17c-1,2.57-.92,6.85-.92,9.74v27A1.87,1.87,0,0,1,133.72,92h-9.9A1.86,1.86,0,0,1,122,90.19v-27c0-5.67.92-14-6.1-14s-6.85,8.13-6.85,14v27A1.87,1.87,0,0,1,107.16,92Z" transform="translate(-40.9 -36.09)"/><path class="cls-2" d="M290.32,36.58C305,36.58,313,49.21,313,65.26c0,15.52-8.79,27.83-22.66,27.83-14.43,0-22.3-12.63-22.3-28.36S276,36.58,290.32,36.58ZM290.41,47c-7.31,0-7.77,10-7.77,16.16s-.09,19.48,7.68,19.48,8-10.7,8-17.23c0-4.28-.19-9.42-1.48-13.49C295.78,48.35,293.56,47,290.41,47Z" transform="translate(-40.9 -36.09)"/><path class="cls-2" d="M332.06,92h-9.87a1.86,1.86,0,0,1-1.78-1.83l0-50.88a1.88,1.88,0,0,1,1.9-1.66h9.19a1.88,1.88,0,0,1,1.76,1.42v7.78h.19c2.78-7,6.66-10.28,13.5-10.28,4.44,0,8.79,1.6,11.56,6,2.59,4.07,2.59,10.92,2.59,15.84v32a1.88,1.88,0,0,1-1.9,1.6h-9.93a1.87,1.87,0,0,1-1.76-1.6V62.8c0-5.57.65-13.7-6.2-13.7a6.49,6.49,0,0,0-5.74,4.07c-1.39,3.11-1.57,6.21-1.57,9.64V90.19A1.9,1.9,0,0,1,332.06,92Z" transform="translate(-40.9 -36.09)"/><path class="cls-2" d="M200,67.73c0,3.86.09,7.08-1.86,10.51-1.58,2.79-4.08,4.5-6.86,4.5-3.8,0-6-2.9-6-7.19,0-8.44,7.57-10,14.74-10Zm10,24.16a2,2,0,0,1-2.34.23c-3.29-2.74-3.88-4-5.68-6.6-5.44,5.54-9.29,7.2-16.34,7.2-8.34,0-14.83-5.15-14.83-15.45a16.83,16.83,0,0,1,10.57-16.2c5.38-2.36,12.89-2.79,18.64-3.43V56.36c0-2.36.18-5.15-1.21-7.19a6.62,6.62,0,0,0-5.56-2.58c-3.78,0-7.14,1.94-8,6a2.09,2.09,0,0,1-1.72,1.82l-9.61-1a1.75,1.75,0,0,1-1.48-2.07c2.21-11.65,12.73-15.17,22.16-15.17,4.82,0,11.12,1.29,14.93,4.93,4.82,4.5,4.36,10.51,4.36,17.06V73.52c0,4.65,1.93,6.68,3.74,9.18.63.9.77,2,0,2.63-2,1.7-5.62,4.82-7.6,6.58Z" transform="translate(-40.9 -36.09)"/><path class="cls-2" d="M70.1,67.73c0,3.86.09,7.08-1.85,10.51-1.57,2.79-4.08,4.5-6.86,4.5-3.8,0-6-2.9-6-7.19,0-8.44,7.57-10,14.74-10Zm10,24.16a2,2,0,0,1-2.34.23c-3.29-2.74-3.88-4-5.68-6.6-5.44,5.54-9.29,7.2-16.34,7.2-8.34,0-14.83-5.15-14.83-15.45a16.83,16.83,0,0,1,10.57-16.2c5.38-2.36,12.89-2.79,18.63-3.43V56.36c0-2.36.19-5.15-1.2-7.19a6.62,6.62,0,0,0-5.56-2.58c-3.78,0-7.14,1.94-8,6a2.1,2.1,0,0,1-1.72,1.82l-9.6-1a1.75,1.75,0,0,1-1.48-2.07C44.77,39.61,55.3,36.09,64.73,36.09c4.82,0,11.12,1.29,14.93,4.93C84.47,45.53,84,51.53,84,58.08V73.52c0,4.65,1.93,6.68,3.74,9.18.63.9.78,2,0,2.63-2,1.7-5.62,4.82-7.6,6.58Z" transform="translate(-40.9 -36.09)"/></svg>